# xmcd
# 
# Track frame offsets:
#     150
#     17250
#     35624
#     79763
#     108152
#     332550
# 
# Disc length: 4440
# 
# Revision: 5
# Processed by: cddbd v1.5.2PL0 Copyright (c) Steve Scherf et al.
# Submitted via: fre:ac v1.0.17
# 
DISCID=3a115606
DTITLE=Tommy february6 - L・O・V・E・L・Y ～夢見るLOVELY BOY～
DYEAR=2004
DGENRE=JPop
TTITLE0=L・O・V・E・L・Y ～夢見るLOVELY BOY～
TTITLE1=I ONLY WANT TO BE WITH YOU
TTITLE2=エル・オー・ヴィー・イー・エル・ワイ ～ゆめみるラヴリーボーイ～ （ピカチュウといっしょヴァージョンだよ！）
TTITLE3=L・O・V・E・L・Y ～夢見るLOVELY BOY～(Original Instrumental)
TTITLE4=Copy Control
TTITLE5=Copy Control
EXTD=
EXTT0=
EXTT1=
EXTT2=
EXTT3=
EXTT4=
EXTT5=
PLAYORDER=
